<svg xmlns="http://www.w3.org/2000/svg" viewBox="0 0 320 220"><ellipse cx="160" cy="190" rx="93" ry="11" fill="#dce8f7"/><path d="M74 67h39l12-18h54l12 18h44c8 0 14 6 14 14v78c0 10-8 18-18 18H74c-10 0-18-8-18-18V81c0-8 6-14 18-14Z" fill="#202b3a"/><rect x="68" y="78" width="176" height="88" rx="12" fill="#101a28"/><circle cx="156" cy="122" r="43" fill="#0b1220" stroke="#43536a" stroke-width="8"/><circle cx="156" cy="122" r="28" fill="#17314e"/><circle cx="147" cy="113" r="10" fill="#4f91db" opacity=".7"/><circle cx="218" cy="94" r="5" fill="#df3b49"/><path d="M121 58h70" stroke="#596a80" stroke-width="5" stroke-linecap="round"/></svg>