<svg xmlns="http://www.w3.org/2000/svg" viewBox="0 0 320 220"><defs><linearGradient id="s" x1="0" y1="0" x2="1" y2="1"><stop stop-color="#1677ff"/><stop offset="1" stop-color="#003b9e"/></linearGradient></defs><ellipse cx="160" cy="195" rx="115" ry="10" fill="#dce8f7"/><path d="M73 35c0-7 6-13 13-13h148c7 0 13 6 13 13v105H73V35Z" fill="#10253f"/><rect x="84" y="34" width="142" height="92" rx="3" fill="url(#s)"/><path d="M45 142h230l-19 34c-3 5-8 8-14 8H78c-6 0-11-3-14-8l-19-34Z" fill="#b9c7d8"/><path d="M126 154h68l4 7h-76l4-7Z" fill="#8fa2b8"/><path d="M95 50h116v66H95z" fill="#1e7cff" opacity=".28"/></svg>